<svg version="1.2" baseProfile="tiny-ps" xmlns="http://www.w3.org/2000/svg" viewBox="0 0 600 422" width="600" height="422">
	<title>Logo_Coupe_de_France_Football_FFF_-_2018-svg</title>
	<defs>
		<radialGradient id="grd1" gradientUnits="userSpaceOnUse"  cx="313.7" cy="131.5" r="345.8">
			<stop offset="0" stop-color="#ffffff"  />
			<stop offset=".3" stop-color="#ffffff"  />
			<stop offset=".7" stop-color="#7b7979"  />
			<stop offset="1" stop-color="#d3d2d2"  />
			<stop offset="1" stop-color="#d3d2d2"  />
		</radialGradient>
		<linearGradient id="grd2" gradientUnits="userSpaceOnUse"  x1="399.9" y1="56.5" x2="196.7" y2="205.9">
			<stop offset="0" stop-color="#0075bb"  />
			<stop offset=".2" stop-color="#0864a8"  />
			<stop offset=".2" stop-color="#0f5395"  />
			<stop offset=".3" stop-color="#184281"  />
			<stop offset=".4" stop-color="#21316f"  />
			<stop offset=".5" stop-color="#252966"  />
			<stop offset=".7" stop-color="#21255d"  />
			<stop offset=".8" stop-color="#1d2053"  />
			<stop offset="1" stop-color="#161944"  />
		</linearGradient>
		<linearGradient id="grd3" gradientUnits="userSpaceOnUse"  x1="362.7" y1="262.7" x2="362.1" y2="208">
			<stop offset="0" stop-color="#dc0223"  />
			<stop offset=".2" stop-color="#dc0424"  />
			<stop offset=".4" stop-color="#de0b2b"  />
			<stop offset=".6" stop-color="#d62b35"  />
			<stop offset=".8" stop-color="#e0bcb3"  />
			<stop offset="1" stop-color="#ececec"  />
		</linearGradient>
		<linearGradient id="grd4" gradientUnits="userSpaceOnUse"  x1="249.4" y1="261.9" x2="249" y2="207.3">
			<stop offset="0" stop-color="#db0021"  />
			<stop offset=".2" stop-color="#de0b2b"  />
			<stop offset=".5" stop-color="#dc1931"  />
			<stop offset=".7" stop-color="#cd453b"  />
			<stop offset=".9" stop-color="#cc8f89"  />
			<stop offset="1" stop-color="#d4d3d3"  />
		</linearGradient>
		<radialGradient id="grd5" gradientUnits="userSpaceOnUse"  cx="340.6" cy="70.2" r="10.3">
			<stop offset="0" stop-color="#918f90"  />
			<stop offset=".3" stop-color="#918f90"  />
			<stop offset=".6" stop-color="#d3d2d2"  />
			<stop offset="1" stop-color="#f4f4f4"  />
		</radialGradient>
		<radialGradient id="grd6" gradientUnits="userSpaceOnUse"  cx="340.5" cy="75.4" r="6.1">
			<stop offset="0" stop-color="#918f90"  />
			<stop offset=".3" stop-color="#918f90"  />
			<stop offset=".6" stop-color="#d3d2d2"  />
			<stop offset="1" stop-color="#f4f4f4"  />
		</radialGradient>
		<radialGradient id="grd7" gradientUnits="userSpaceOnUse"  cx="257.7" cy="69.5" r="74.5">
			<stop offset="0" stop-color="#918f90"  />
			<stop offset=".1" stop-color="#918f90"  />
			<stop offset=".1" stop-color="#9c9a9b"  />
			<stop offset=".3" stop-color="#9c9a9b"  />
			<stop offset=".5" stop-color="#ffffff"  />
			<stop offset=".8" stop-color="#f4f4f4"  />
			<stop offset="1" stop-color="#9c9a9b"  />
		</radialGradient>
		<radialGradient id="grd8" gradientUnits="userSpaceOnUse"  cx="262.5" cy="110.7" r="35.8">
			<stop offset="0" stop-color="#918f90"  />
			<stop offset=".3" stop-color="#918f90"  />
			<stop offset=".6" stop-color="#d3d2d2"  />
			<stop offset="1" stop-color="#f4f4f4"  />
		</radialGradient>
		<radialGradient id="grd9" gradientUnits="userSpaceOnUse"  cx="257.5" cy="69.8" r="10.4">
			<stop offset="0" stop-color="#918f90"  />
			<stop offset=".3" stop-color="#918f90"  />
			<stop offset=".6" stop-color="#d3d2d2"  />
			<stop offset="1" stop-color="#f4f4f4"  />
		</radialGradient>
		<radialGradient id="grd10" gradientUnits="userSpaceOnUse"  cx="257.5" cy="74.9" r="6.1">
			<stop offset="0" stop-color="#918f90"  />
			<stop offset=".3" stop-color="#918f90"  />
			<stop offset=".6" stop-color="#d3d2d2"  />
			<stop offset="1" stop-color="#f4f4f4"  />
		</radialGradient>
		<radialGradient id="grd11" gradientUnits="userSpaceOnUse"  cx="294.7" cy="78" r="50.9">
			<stop offset="0" stop-color="#ffffff"  />
			<stop offset=".3" stop-color="#ffffff"  />
			<stop offset=".6" stop-color="#7b7979"  />
			<stop offset=".7" stop-color="#d3d2d2"  />
			<stop offset="1" stop-color="#d3d2d2"  />
		</radialGradient>
		<radialGradient id="grd12" gradientUnits="userSpaceOnUse"  cx="298.4" cy="157.1" r="45.2">
			<stop offset="0" stop-color="#4f4c4d"  />
			<stop offset="0" stop-color="#4f4c4d"  />
			<stop offset=".1" stop-color="#4f4c4d"  />
			<stop offset=".3" stop-color="#9c9a9b"  />
			<stop offset=".4" stop-color="#9c9a9b"  />
			<stop offset=".6" stop-color="#d3d2d2"  />
			<stop offset="1" stop-color="#f4f4f4"  />
		</radialGradient>
		<radialGradient id="grd13" gradientUnits="userSpaceOnUse"  cx="329.1" cy="113.5" r="38.9">
			<stop offset="0" stop-color="#918f90"  />
			<stop offset=".3" stop-color="#918f90"  />
			<stop offset=".6" stop-color="#d3d2d2"  />
			<stop offset="1" stop-color="#f4f4f4"  />
		</radialGradient>
		<radialGradient id="grd14" gradientUnits="userSpaceOnUse"  cx="315.7" cy="115.1" r="17.1">
			<stop offset="0" stop-color="#918f90"  />
			<stop offset=".3" stop-color="#918f90"  />
			<stop offset=".6" stop-color="#d3d2d2"  />
			<stop offset="1" stop-color="#f4f4f4"  />
		</radialGradient>
		<radialGradient id="grd15" gradientUnits="userSpaceOnUse"  cx="282.4" cy="111.2" r="14.6">
			<stop offset="0" stop-color="#918f90"  />
			<stop offset=".3" stop-color="#918f90"  />
			<stop offset=".6" stop-color="#d3d2d2"  />
			<stop offset="1" stop-color="#f4f4f4"  />
		</radialGradient>
		<radialGradient id="grd16" gradientUnits="userSpaceOnUse"  cx="308.2" cy="148.1" r="12">
			<stop offset="0" stop-color="#918f90"  />
			<stop offset=".3" stop-color="#918f90"  />
			<stop offset=".6" stop-color="#d3d2d2"  />
			<stop offset="1" stop-color="#f4f4f4"  />
		</radialGradient>
		<radialGradient id="grd17" gradientUnits="userSpaceOnUse"  cx="288" cy="138.5" r="12">
			<stop offset="0" stop-color="#918f90"  />
			<stop offset=".3" stop-color="#918f90"  />
			<stop offset=".6" stop-color="#d3d2d2"  />
			<stop offset="1" stop-color="#f4f4f4"  />
		</radialGradient>
		<radialGradient id="grd18" gradientUnits="userSpaceOnUse"  cx="299.1" cy="45.3" r="10.5">
			<stop offset="0" stop-color="#918f90"  />
			<stop offset=".3" stop-color="#918f90"  />
			<stop offset=".6" stop-color="#d3d2d2"  />
			<stop offset="1" stop-color="#f4f4f4"  />
		</radialGradient>
		<radialGradient id="grd19" gradientUnits="userSpaceOnUse"  cx="299.1" cy="50.1" r="6.5">
			<stop offset="0" stop-color="#918f90"  />
			<stop offset=".3" stop-color="#918f90"  />
			<stop offset=".6" stop-color="#d3d2d2"  />
			<stop offset="1" stop-color="#f4f4f4"  />
		</radialGradient>
	</defs>
	<style>
		tspan { white-space:pre }
		.s0 { fill: url(#grd1) } 
		.s1 { fill: url(#grd2) } 
		.s2 { fill: #ffffff } 
		.s3 { fill: url(#grd3) } 
		.s4 { fill: url(#grd4) } 
		.s5 { fill: url(#grd5) } 
		.s6 { fill: url(#grd6) } 
		.s7 { fill: #9c9a9b } 
		.s8 { fill: url(#grd7) } 
		.s9 { fill: url(#grd8) } 
		.s10 { fill: #231f20 } 
		.s11 { fill: url(#grd9) } 
		.s12 { fill: url(#grd10) } 
		.s13 { fill: url(#grd11) } 
		.s14 { fill: url(#grd12) } 
		.s15 { fill: url(#grd13) } 
		.s16 { fill: url(#grd14) } 
		.s17 { fill: url(#grd15) } 
		.s18 { fill: #ed1c24 } 
		.s19 { fill: url(#grd16) } 
		.s20 { fill: url(#grd17) } 
		.s21 { fill: url(#grd18) } 
		.s22 { fill: url(#grd19) } 
		.s23 { fill: #162d66 } 
	</style>
	<g id="layer1">
		<g id="g8116">
		</g>
		<g id="g8054">
		</g>
		<g id="g4723">
		</g>
		<g id="g10657">
			<g id="g10649">
				<path id="path4771" class="s0" d="m418 55.14v152.46l-118.5 54.4l-118.5-54.4v-152.46l118.56-54.14l118.44 54.14z" />
				<path id="path4769" class="s1" d="m299.56 10.43l109.39 50.31l0.04 142.33l-109.49 51.14l-109.48-51.14l0.04-142.33l109.51-50.31z" />
				<path id="path10588" fill-rule="evenodd" class="s2" d="m299.5 247.83c36.49-15.09 72.99-30.19 109.49-45.27v0.87c-21.52 12.59-73.34 34.55-109.49 51.01c-36.14-16.46-87.96-38.42-109.49-51.01v-0.87c36.53 15 72.97 30.24 109.49 45.27z" />
				<g id="g10645">
					<path id="path10606" class="s3" d="m418 207.6l-118.5 54.4v-7.56c36.14-16.46 87.96-38.42 109.48-51.01l9.02 4.16z" />
					<path id="path10625" class="s4" d="m299.5 262l-118.5-54.4l9.01-4.16c21.52 12.59 73.34 34.55 109.49 51.01v7.56z" />
				</g>
			</g>
			<g id="g10568">
				<g id="g10496">
					<path id="path10490" fill-rule="evenodd" class="s2" d="m269.6 180.59v6.53h-22.5v6.56h19.49v6.07h-19.49v10.05h-7.53v-29.2h30.03z" />
					<path id="path10492" fill-rule="evenodd" class="s2" d="m314.04 180.59v6.53h-22.5v6.56h19.49v6.07h-19.49v10.05h-7.53v-29.2h30.03z" />
					<path id="path10494" fill-rule="evenodd" class="s2" d="m358.49 180.59v6.53h-22.5v6.56h19.49v6.07h-19.49v10.05h-7.53v-29.2h30.03z" />
				</g>
			</g>
		</g>
	</g>
	<g id="g841">
		<g id="g6664">
			<path id="path1273" class="s5" d="m335.74 74.57c0.02-3.85 1.96-5.35 4.3-5.33v0c1.93 0.01 4.12 1.26 5.35 3.47v0c-5.24 2.17-8.03 9.17-8.03 9.17v0c-1.22-3.03-1.62-5.38-1.61-7.3" />
			<path id="path1297" class="s6" d="m338.33 69c0.51-0.16 1.03-0.24 1.54-0.24v0c0.49 0 0.98 0.08 1.44 0.22v0c1.9 0.56 3.38 2.03 4.07 3.73v0c-1.07-1.49-2.62-2.56-4.28-2.9v0c-1.65-0.33-3.43 0.22-4.15 1.69v0c-0.77 1.44-0.79 3.29-0.65 5.05v0c0.17 1.77 0.57 3.55 1.05 5.33v0c-0.87-1.62-1.57-3.36-1.9-5.21v0c-0.31-1.83-0.41-3.83 0.54-5.69v0c0.49-0.9 1.34-1.66 2.33-1.97" />
			<path id="path1309" class="s7" d="m336.94 71.54c-0.68 1.66-0.71 3.4-0.47 5.12c0.23 1.72 0.69 3.44 0.87 5.21c-0.61-1.67-1.16-3.36-1.41-5.14c-0.12-0.89-0.16-1.81 0-2.71c0.14-0.9 0.48-1.76 1.01-2.49" />
			<path id="path1339" class="s8" d="m236.8 83.48c0.09-13.34 4.54-21.56 12.11-21.52v0c1.79 0.01 3.85 0.57 6.04 1.82v0c-3.02-1.25-8.27 3.8-8.38 19.62v0c-0.13 19.81 6.95 52.17 32.12 74.47v0c-29.74-16.7-42.02-53.22-41.89-74.4" />
			<path id="path1363" class="s9" d="m251.77 64.4c0.63-0.48 1.42-0.81 2.21-0.8v0c0.34 0 0.66 0.06 0.97 0.2v0c-1.08-0.37-2.22 0.08-3.03 0.79v0c-0.83 0.72-1.46 1.63-1.99 2.59v0c-1.02 1.94-1.61 4.1-2.01 6.25v0c-0.79 4.34-0.92 8.79-0.68 13.21v0c0.25 4.42 0.71 8.83 1.46 13.19l0.62 3.26l0.32 1.63l0.38 1.61l0.78 3.23l0.92 3.19v0c2.43 8.51 6.01 16.67 10.48 24.31v0c0.58 0.94 1.08 1.94 1.71 2.85l1.85 2.76l0.92 1.38v0c0.33 0.45 0.67 0.88 1.01 1.32l2.02 2.64v0c0.64 0.91 1.41 1.71 2.12 2.56l2.18 2.53v0c0.74 0.83 1.56 1.59 2.33 2.39l2.34 2.39v0c-1.66-1.48-3.36-2.94-4.97-4.49l-2.33-2.41v0c-0.77-0.82-1.58-1.59-2.28-2.47l-2.13-2.59v0c-0.35-0.43-0.72-0.86-1.07-1.3l-0.98-1.36l-1.96-2.73v0c-0.67-0.9-1.21-1.88-1.83-2.82v0c-4.79-7.59-8.47-15.87-10.97-24.5l-0.91-3.24l-0.77-3.28l-0.38-1.64l-0.31-1.65v0c-0.2-1.1-0.43-2.21-0.61-3.31v0c-0.67-4.44-1.12-8.91-1.2-13.4v0c-0.09-4.48 0.18-9.01 1.14-13.41v0c0.53-2.19 1.25-4.36 2.41-6.3v0c0.59-0.96 1.3-1.87 2.2-2.57" />
			<path id="path1375" class="s10" d="m248.91 61.97c-2.43 0.04-4.83 0.99-6.49 2.76c-1.7 1.72-2.82 3.91-3.58 6.19c-0.77 2.28-1.21 4.67-1.46 7.06c-0.24 2.4-0.34 4.82-0.26 7.23c0.18 4.82 0.84 9.63 1.87 14.35c1.04 4.72 2.43 9.36 4.14 13.88c3.37 9.05 8.04 17.64 13.97 25.28c2.95 3.83 6.24 7.4 9.86 10.6c3.6 3.23 7.52 6.12 11.72 8.57c-4.26-2.33-8.27-5.12-11.97-8.27c-3.7-3.16-7.06-6.71-10.09-10.52c-6.08-7.62-10.78-16.28-14.23-25.38c-1.71-4.56-3.08-9.25-4.11-14.01c-1-4.76-1.69-9.61-1.77-14.49c-0.05-2.44 0.08-4.88 0.36-7.3c0.29-2.42 0.76-4.83 1.59-7.13c0.83-2.29 2.04-4.5 3.81-6.2c1.73-1.76 4.2-2.65 6.62-2.62" />
			<path id="path1399" class="s11" d="m258.08 68.8v0c2.34 0.01 4.25 1.54 4.23 5.39v0c-0.01 1.92-0.44 4.26-1.7 7.28v0c0 0-2.7-7.03-7.92-9.27c1.25-2.19 3.46-3.42 5.38-3.4z" />
			<path id="path1423" class="s12" d="m256.8 68.45c0.47-0.14 0.98-0.21 1.48-0.21v0c0.52 0 1.04 0.09 1.55 0.25v0c1.01 0.33 1.87 1.12 2.36 2.05v0c0.94 1.9 0.8 3.91 0.46 5.75v0c-0.37 1.85-1.09 3.59-2.04 5.18v0c0.45-1.79 0.87-3.56 1.04-5.33v0c0.14-1.75 0.14-3.59-0.6-5v0c-0.67-1.43-2.39-2-4.02-1.72v0c-1.65 0.3-3.2 1.33-4.33 2.78v0c0.67-1.73 2.19-3.2 4.1-3.76" />
			<path id="path1449" class="s13" d="m303.57 61.88v0c6.88 0.04 12.08 3.79 13.01 8.88v0c0.8 3.45-0.31 5.78 4.77 6.77l-0.01 1.52v0c-0.02 3.16 1.76 4.96 14.4 6.55v0c1.79 0.29 2.2 0.7 2.19 2.08l-0.03 4.54v0c-6.3-2.93-19.64-4.67-38.89-4.79v0c-19.24-0.12-32.73 1.44-39.07 4.29l-0.01 0l0.03-4.54v0c0.01-1.38 0.43-1.78 2.35-2.05v0c12.66-1.43 14.46-3.21 14.48-6.37l0.01-1.52v0c5.09-0.93 4.01-3.27 4.86-6.71v0c0.99-5.08 6.24-8.76 13.12-8.72l8.79 0.06z" />
			<path id="path1461" class="s10" d="m259.93 91.72c2.99-1.39 6.24-2.12 9.47-2.75c3.24-0.59 6.52-0.97 9.8-1.26c6.57-0.58 13.16-0.7 19.74-0.71c6.58 0.09 13.17 0.29 19.73 0.95c3.28 0.34 6.55 0.76 9.79 1.39c3.22 0.67 6.46 1.44 9.43 2.88c-3.04-1.25-6.28-1.93-9.51-2.46c-3.24-0.54-6.5-0.89-9.77-1.14c-6.55-0.52-13.11-0.73-19.68-0.75c-6.56-0.07-13.13 0.07-19.68 0.5c-3.27 0.22-6.54 0.53-9.79 1.02c-3.24 0.49-6.48 1.12-9.54 2.33" />
			<path id="path1837" class="s10" d="m284.59 75.31c-0.76-0.28 2.04-3.82 3.08-7.3c1.33-4.43 4.71-3.41 3.02 0.77c-1.25 3.11-4.87 6.99-6.1 6.53z" />
			<path id="path1861" class="s2" d="m318.91 77.69c-3.32 0.34-6.64 0.5-9.96 0.61c-3.32 0.12-6.64 0.13-9.95 0.13c-3.31-0.04-6.63-0.09-9.94-0.25c-3.32-0.15-6.63-0.36-9.95-0.74c3.32-0.34 6.64-0.51 9.96-0.61c3.32-0.12 6.64-0.13 9.94-0.13c3.32 0.04 6.63 0.1 9.95 0.26c3.32 0.15 6.64 0.36 9.95 0.74z" />
			<path id="path1865" class="s2" d="m306.57 83.96l3.66-0.11l3.66 0.01c2.44 0.02 4.88 0.05 7.32 0.14c2.44 0.1 4.88 0.25 7.31 0.5c1.21 0.12 2.43 0.27 3.64 0.43c1.2 0.2 2.4 0.44 3.6 0.68c-1.21-0.16-2.42-0.31-3.63-0.43c-1.2-0.16-2.41-0.31-3.63-0.43c-2.42-0.24-4.86-0.4-7.29-0.5c-2.43-0.1-4.87-0.13-7.3-0.15l-3.66-0.01l-3.66-0.14z" />
			<path id="path1895" fill-rule="evenodd" class="s14" d="m343.24 64.36c2.21-1.22 4.28-1.76 6.06-1.75c7.56 0.05 11.91 8.33 11.83 21.67c-0.15 23.38-14.68 58.49-42.57 74.82c-7.45 4.49-16.28 7.05-20.12 7.02c-10.45-0.07-27.25-20.69-34.89-47.91c0 0 0.96 0.14 1.51 0.15c14.44 0.09 23.48-13.92 36.12-14.24c-2.06-1.25-5.07-1.96-8.09-1.98c-14.99-0.1-20.14 9.09-30.62 12.32c-1.07-4.96-2-9.92-2.38-14.73c0.03-4.54 22.87-6.59 38.95-6.49c15.96 0.1 38.63 2.45 38.6 6.85c-0.01 1.38-0.02 2.89-0.16 4.26c-0.28-0.14-1.24-0.28-2.06-0.29c-14.44-0.09-23.53 17.57-40.97 16.22c3.01 2.5 7.7 2.96 10.73 2.97c12.36 0.08 26.82-13.69 32.01-16.65c-3.72 21.29-18.87 47.82-30.76 56.27c33.66-15.6 44.79-56.23 44.93-78.79c0.1-15.82-5.09-20.94-8.13-19.72zm-67.58 65.65c4.69 9.19 15.52 15.27 26.21 15.97c-9.38-4.2-16.72-13.29-20.11-22.86c-1.93 0.87-4.76 3.61-6.1 6.89z" />
			<path id="path1907" class="s10" d="m306.43 162.87l1.56-1.32c0.54-0.42 1.02-0.9 1.5-1.38l1.45-1.43l1.35-1.52c1.81-2.01 3.45-4.17 5.03-6.38c3.13-4.42 5.95-9.06 8.45-13.88c2.55-4.78 4.78-9.73 6.73-14.78c0.46-1.27 0.97-2.53 1.4-3.82l1.25-3.87l1.12-3.92l0.93-3.97c-0.76 5.39-2.24 10.67-4.07 15.81c-1.83 5.13-4.09 10.12-6.6 14.96c-2.58 4.81-5.41 9.49-8.68 13.86c-3.28 4.34-6.93 8.51-11.41 11.64" />
			<path id="path1911" class="s10" d="m318.56 159.1c6.34-3.95 12.04-8.82 17.02-14.33c4.98-5.51 9.3-11.61 12.88-18.12c3.64-6.47 6.55-13.35 8.74-20.45l0.82-2.67l0.67-2.71c0.22-0.9 0.47-1.8 0.65-2.71l0.51-2.74c0.41-1.82 0.59-3.67 0.84-5.52c0.14-0.92 0.19-1.85 0.24-2.78l0.19-2.79c0.06 7.47-1.23 14.92-3.29 22.11c-2.08 7.19-5.02 14.13-8.62 20.68c-3.67 6.52-8.02 12.69-13.15 18.15l-1.96 2.01l-0.98 1.01c-0.33 0.32-0.7 0.62-1.04 0.93l-2.1 1.86c-0.71 0.61-1.38 1.27-2.15 1.81c-1.51 1.1-2.98 2.26-4.52 3.32c0 0-1.35 0.87-3.23 2.04c-0.87 0.54-1.53 0.9-1.53 0.9z" />
			<path id="path1935" class="s15" d="m343.24 64.36c0.32-0.12 0.67-0.19 1.02-0.18v0c0.28 0 0.55 0.04 0.82 0.12v0c0.29 0.11 0.59 0.23 0.86 0.39v0c0.25 0.18 0.54 0.34 0.77 0.55v0c0.96 0.83 1.66 1.91 2.23 3.02v0c1.14 2.24 1.81 4.68 2.26 7.14v0c0.42 2.46 0.66 4.96 0.71 7.45v0c0.09 2.5 0.01 5-0.17 7.48v0c-0.73 9.95-2.99 19.77-6.52 29.1v0c-3.55 9.32-8.52 18.16-15 25.77v0c-3.26 3.79-6.9 7.24-10.89 10.24v0c-4.01 2.95-8.31 5.51-12.89 7.42v0c8.85-4.48 16.53-10.93 22.74-18.52v0c3.08-3.82 5.83-7.9 8.22-12.19v0c2.41-4.27 4.48-8.74 6.21-13.33v0c1.77-4.58 3.21-9.3 4.34-14.08v0c1.17-4.77 1.96-9.64 2.46-14.52v0c0.25-2.44 0.37-4.9 0.38-7.36v0c0.05-2.46-0.1-4.91-0.42-7.34v0c-0.31-2.42-0.84-4.84-1.83-7.07v0c-0.5-1.11-1.12-2.19-2-3.03v0c-0.2-0.23-0.46-0.39-0.69-0.59v0c-0.25-0.17-0.52-0.31-0.79-0.43v0c-0.57-0.21-1.2-0.24-1.8-0.06" />
			<path id="path1947" class="s10" d="m262.46 114.46c1.62-0.66 3.23-1.32 4.73-2.22c1.52-0.83 2.98-1.78 4.43-2.76c2.89-1.94 5.85-3.89 9.09-5.32c3.25-1.41 6.78-2.17 10.31-2.28c3.49-0.18 7.19 0.33 10.16 2.24c-1.55-0.81-3.24-1.27-4.95-1.49c-0.86-0.12-1.72-0.19-2.58-0.2c-0.86-0.02-1.73 0.08-2.59 0.11c-3.45 0.24-6.86 0.97-10 2.41c-1.6 0.65-3.12 1.49-4.62 2.35c-1.5 0.88-2.96 1.83-4.46 2.73c-1.5 0.91-3.01 1.81-4.59 2.57c-1.57 0.79-3.24 1.38-4.92 1.85" />
			<path id="path1951" class="s10" d="m294.44 120.28c3.92 0.13 7.71-0.77 11.28-2.3c3.58-1.51 6.89-3.61 10.12-5.81c3.28-2.15 6.5-4.44 10.12-6.11c1.81-0.81 3.69-1.49 5.65-1.83c0.98-0.16 1.97-0.27 2.95-0.26c0.98-0.02 2 0.03 2.92 0.38c-0.95-0.26-1.94-0.22-2.91-0.15c-0.97 0.06-1.94 0.23-2.88 0.44c-1.9 0.42-3.71 1.15-5.45 2.02c-3.47 1.75-6.68 4.01-9.92 6.22c-3.28 2.16-6.64 4.3-10.35 5.71c-1.85 0.7-3.78 1.23-5.74 1.51c-1.97 0.26-3.84 0.42-5.79 0.17" />
			<path id="path1975" class="s16" d="m331.77 109.39c1.74-1 3.5-2.08 5.42-2.79v0c-1.52 1.35-2.94 2.75-4.41 4.14v0c-1.49 1.36-2.98 2.72-4.56 3.99v0c-0.66 0.54-1.33 1.07-2.01 1.58v0c-2.57 1.94-5.3 3.72-8.24 5.19v0c-1.85 0.93-3.81 1.71-5.85 2.29v0c-2.04 0.57-4.18 0.92-6.36 0.84v0c-2.14-0.06-4.2-0.48-6.21-1.13v0c-1.95-0.71-3.8-1.6-5.11-3.2v0c1.8 0.96 3.59 1.3 5.51 1.51v0c1.9 0.24 3.87 0.23 5.73 0.07v0c1.84-0.17 3.67-0.61 5.45-1.24v0c1.79-0.61 3.56-1.37 5.29-2.23v0c3.47-1.72 6.83-3.76 10.21-5.86l5.13-3.14" />
			<path id="path1987" class="s2" d="m326.2 116.31c-2.3 2-5.99 4.54-8.28 5.81c-2.15 1.18-4.14 2.16-6.99 2.7c-2.88 0.48-5.82 0.46-8.68-0.08c-1.43-0.29-2.83-0.74-4.12-1.4c-1.27-0.68-2.78-1.93-3.68-3.05c0.52 0.49 1.4 1.29 1.99 1.69c0.6 0.38 1.23 0.71 1.86 0.99c1.3 0.56 2.67 0.93 4.06 1.13c2.79 0.39 5.66 0.43 8.42-0.11c2.79-0.46 5.96-1.77 8-2.9c2.24-1.24 3.44-1.8 7.41-4.77" />
			<path id="path2011" class="s17" d="m291.17 105.51c2.39-0.96 5.02-1.64 7.6-1.63v0c0.81 0.01 1.61 0.08 2.4 0.23v0c-3.26 0.81-6.08 2.19-8.81 3.83v0c-2.72 1.63-5.36 3.49-8.17 5.23v0c-2.8 1.75-5.79 3.38-9.06 4.45v0c-3.25 1.05-8.31 1.33-11.6 0.59v0c3.28-0.72 7.76-1.66 10.57-3.11v0c2.81-1.43 5.49-3.15 8.26-4.87v0c2.77-1.71 5.64-3.44 8.8-4.72" />
			<path id="path2023" class="s18" d="m299.86 161.02c4.96-6.67 9.47-19.65 7.86-27.43c2.31-0.25 6.49-0.13 8.47 0.65c-0.65 7.51-6.87 17.76-16.34 26.79z" />
			<path id="path2047" class="s19" d="m313.01 141.44c1.24-2.28 2.31-4.61 3.19-7.2v0c0.34 2.72-0.21 5.52-1.1 8.12v0c-0.91 2.6-2.2 5.05-3.71 7.32v0c-1.51 2.28-3.26 4.38-5.18 6.29v0c-1.94 1.9-4.02 3.65-6.36 5.06v0c1.5-2.28 3.1-4.4 4.62-6.53v0c1.54-2.13 3.06-4.26 4.49-6.42v0c1.43-2.17 2.8-4.36 4.04-6.63" />
			<path id="path2071" class="s20" d="m275.66 130.01c1.88 2.03 3.73 3.82 5.71 5.43v0c1.98 1.61 4.07 3.03 6.25 4.31v0c2.18 1.27 4.45 2.4 6.82 3.42v0c2.37 1.02 4.81 1.9 7.42 2.82v0c-2.72 0.57-5.53 0.43-8.26-0.13v0c-2.73-0.57-5.37-1.6-7.8-3.02v0c-2.42-1.42-4.63-3.25-6.42-5.41v0c-1.78-2.17-3.17-4.69-3.73-7.41l0 0z" />
			<path id="path2095" class="s21" d="m299.22 44.35v0c3.69 4.01 5.03 8.97 5.01 12.68v0c-1.65 0.27-3.58 0.12-5.09-0.44v0c-1.51 0.54-3.43 0.67-5.08 0.38c0.02-3.71 1.43-8.66 5.16-12.62z" />
			<path id="path2119" class="s22" d="m299.22 43.07l0.62 0.69v0c1.63 1.81 2.91 3.93 3.66 6.22v0c0.77 2.28 1.07 4.72 0.71 7.05v0c-0.36-2.32-1.02-4.51-1.95-6.56v0c-0.81-1.73-1.85-3.37-3.06-4.81v0c-1.21 1.42-2.29 3.06-3.11 4.77v0c-0.97 2.03-1.65 4.22-2.04 6.53v0c-0.33-2.33 0-4.77 0.8-7.04v0c0.79-2.28 2.09-4.38 3.73-6.17l0.64-0.68z" />
			<path id="path2131" class="s10" d="m299.13 57.64c-0.8 0.23-1.65 0.3-2.45 0.23c-0.92-0.09-1.84-0.35-2.62-0.9c0.91-0.26 1.73-0.45 2.52-0.66c0.79-0.2 1.54-0.41 2.23-0.66l0.34-0.12l0.34 0.12c0.7 0.26 1.45 0.48 2.23 0.69c0.79 0.21 1.59 0.42 2.5 0.69c-0.39 0.29-0.82 0.46-1.27 0.61c-0.45 0.14-0.9 0.22-1.37 0.26c-0.81 0.06-1.66-0.01-2.46-0.26" />
			<path id="path1465" class="s10" d="m317.04 81.6c-3.01 0.14-6.02 0.2-9.03 0.24c-3.01 0.05-6.02 0.02-9.03 0.03c-3-0.05-6.01-0.06-9.02-0.15c-3.01-0.08-6.02-0.17-9.03-0.35c3.01-0.14 6.02-0.19 9.03-0.24c3.01-0.04 6.02-0.02 9.02-0.03c3.01 0.05 6.02 0.06 9.03 0.15c3.01 0.08 6.02 0.18 9.03 0.35z" />
		</g>
	</g>
	<g id="layer1">
		<g id="g10657">
		</g>
	</g>
	<g id="g3834">
		<path id="path3814" class="s23" d="m287.57 419.76h-25.96v-50.46h25.96v9.9h-14.44v10.06h13.14v9.58h-13.14v11.03h14.44v9.9z" />
		<path id="path3802" class="s23" d="m469.72 419.76h-13.95v-110.5h22.07l14.44 86.16c-1.79-28.07-2.27-52.9-2.27-69.29v-16.88h13.79v110.5h-21.09l-14.11-85.02c0.97 18.5 1.13 36.19 1.13 51.76l0 33.27z" />
		<path id="path3800" class="s23" d="m245.33 419.76h-31.15v-110.5h31.15v13.31h-16.39v34.73h14.28v12.82h-14.28v36.35h16.39v13.3z" />
		<path id="path3798" class="s23" d="m340.72 309.26v13.31h-17.52v34.73h15.25v12.82h-15.25v49.65h-14.93v-110.5h32.45z" />
		<path id="path3796" fill-rule="evenodd" class="s23" d="m369.28 309.26c13.63 0 19.47 6.98 19.47 20.61v24.83c0 11.2-4.38 17.85-12.98 20.12c3.4 2.6 6.01 7.63 7.95 14.93l8.11 30.02h-15.74l-10.55-44.29h-1.63v44.29h-14.76v-110.5l20.12 0zm-5.36 52.89h4.38c4.22 0 5.68-1.94 5.68-6.81v-25.31c0-4.7-1.79-6.65-5.84-6.65h-4.22l0 38.77z" />
		<path id="path3794" fill-rule="evenodd" class="s23" d="m180.59 309.26c13.95 0 19.63 6.98 19.63 20.61v29.54c0 13.95-6.65 20.76-19.63 20.76h-5.2v39.59h-14.93v-110.5h20.12zm-5.2 57.6h4.38c4.22 0 5.51-1.95 5.51-6.82v-30.02c0-4.7-1.62-6.65-5.68-6.65h-4.22v43.48z" />
		<path id="path3792" class="s23" d="m600 419.76h-31.15v-110.5h31.15v13.31h-16.39v34.73h14.28v12.82h-14.28v36.35h16.39v13.3z" />
		<path id="path3790" fill-rule="evenodd" class="s23" d="m275.56 309.26c10.22 0 14.93 4.55 14.93 13.47v23.53c0 8.93-4.71 13.47-14.93 13.47h-13.95v-50.47l13.95 0zm-2.44 40.56h2.44c2.43 0 3.25-1.13 3.25-4.7v-21.26c0-3.57-0.98-4.7-3.41-4.7h-2.27v30.66z" />
		<path id="path3788" class="s23" d="m121.69 401.1c0 4.54 1.3 6.97 5.19 6.97c3.25 0 4.87-2.27 4.87-6.97v-91.84h14.76v91.19c0 14.44-6.48 20.93-19.63 20.93c-13.95 0-19.96-6.66-19.96-20.93v-91.19h14.77v91.84" />
		<path id="path3786" fill-rule="evenodd" class="s23" d="m433.54 309.26l10.23 110.5h-15.26l-1.78-23.21h-10.71l-1.63 23.21h-14.93l10.22-110.5h23.86zm-16.55 74.15h8.76l-4.38-59.71l-4.38 59.71z" />
		<path id="path3784" class="s23" d="m39.27 400.29c0 14.43-5.68 21.09-19.47 21.09c-13.79 0-19.79-6.66-19.79-21.09v-71.23c0-14.28 5.84-21.26 19.79-21.26c13.47 0 19.47 6.81 19.47 21.26v17.03h-14.44v-17.84c0-5.36-1.62-7.3-5.03-7.3c-3.4 0-5.03 1.95-5.03 7.3v72.69c0 4.7 1.63 6.97 5.03 6.97c3.41 0 5.03-2.27 5.03-6.97v-19.47h14.44v18.82z" />
		<path id="path3782" fill-rule="evenodd" class="s23" d="m88.1 312.83c3.24 3.57 4.87 8.93 4.87 16.23v71.07c0 14.6-6.33 21.26-19.96 21.26c-13.31 0-19.79-6.65-19.79-21.26v-71.07c0-7.3 1.62-12.66 4.87-16.23c3.24-3.41 8.28-5.02 14.93-5.02c6.82 0 11.84 1.62 15.09 5.02zm-15.09 8.12c-1.62 0-2.92 0.65-3.73 1.79c-0.82 1.14-1.14 2.92-1.14 5.52v72.69c0 4.87 1.62 7.14 4.87 7.14c3.57 0 5.03-2.27 5.03-7.14v-72.69c0-2.6-0.32-4.38-1.14-5.52c-0.81-1.14-2.11-1.79-3.89-1.79z" />
		<path id="path2135" class="s23" d="m557.01 400.29c0 14.43-5.68 21.09-19.47 21.09c-13.79 0-19.79-6.66-19.79-21.09v-71.23c0-14.28 5.84-21.26 19.79-21.26c13.47 0 19.47 6.81 19.47 21.26v17.03h-14.44v-17.84c0-5.36-1.62-7.3-5.03-7.3c-3.41 0-5.03 1.95-5.03 7.3v72.69c0 4.7 1.63 6.97 5.03 6.97c3.41 0 5.03-2.27 5.03-6.97v-19.47h14.44v18.82z" />
	</g>
</svg>